<svg width="31" height="31" viewBox="0 0 31 31" fill="none" xmlns="http://www.w3.org/2000/svg">
<g clip-path="url(#clip0_388_4426)">
<path d="M28.6688 22.575C28.6688 23.0739 28.4706 23.5524 28.1178 23.9052C27.765 24.258 27.2865 24.4562 26.7875 24.4562H4.21251C3.71357 24.4562 3.23507 24.258 2.88227 23.9052C2.52946 23.5524 2.33126 23.0739 2.33126 22.575V11.2875C2.33126 10.7885 2.52946 10.31 2.88227 9.95721C3.23507 9.6044 3.71357 9.4062 4.21251 9.4062H6.41734C7.91338 9.40538 9.34789 8.8106 10.4056 7.75258L11.967 6.19491C12.3188 5.843 12.7957 5.6448 13.2933 5.6437H17.703C18.2019 5.64381 18.6803 5.84208 19.033 6.19491L20.5907 7.75258C21.1148 8.27691 21.7372 8.69283 22.4222 8.97656C23.1071 9.2603 23.8413 9.40629 24.5827 9.4062H26.7875C27.2865 9.4062 27.765 9.6044 28.1178 9.95721C28.4706 10.31 28.6688 10.7885 28.6688 11.2875V22.575ZM4.21251 7.52495C3.21464 7.52495 2.25763 7.92136 1.55202 8.62696C0.846417 9.33257 0.450012 10.2896 0.450012 11.2875L0.450012 22.575C0.450012 23.5728 0.846417 24.5298 1.55202 25.2354C2.25763 25.941 3.21464 26.3375 4.21251 26.3375H26.7875C27.7854 26.3375 28.7424 25.941 29.448 25.2354C30.1536 24.5298 30.55 23.5728 30.55 22.575V11.2875C30.55 10.2896 30.1536 9.33257 29.448 8.62696C28.7424 7.92136 27.7854 7.52495 26.7875 7.52495H24.5827C23.5849 7.52474 22.628 7.12819 21.9226 6.42254L20.3649 4.86486C19.6595 4.15921 18.7026 3.76266 17.7048 3.76245H13.2952C12.2974 3.76266 11.3405 4.15921 10.6351 4.86486L9.07743 6.42254C8.37198 7.12819 7.41513 7.52474 6.41734 7.52495H4.21251Z" fill="#7F8F0B"/>
<path d="M15.5 20.6938C14.2527 20.6938 13.0564 20.1982 12.1744 19.3162C11.2924 18.4342 10.7969 17.238 10.7969 15.9906C10.7969 14.7433 11.2924 13.547 12.1744 12.665C13.0564 11.783 14.2527 11.2875 15.5 11.2875C16.7474 11.2875 17.9436 11.783 18.8256 12.665C19.7076 13.547 20.2031 14.7433 20.2031 15.9906C20.2031 17.238 19.7076 18.4342 18.8256 19.3162C17.9436 20.1982 16.7474 20.6938 15.5 20.6938ZM15.5 22.575C17.2463 22.575 18.9211 21.8813 20.1559 20.6465C21.3907 19.4117 22.0844 17.7369 22.0844 15.9906C22.0844 14.2443 21.3907 12.5696 20.1559 11.3348C18.9211 10.1 17.2463 9.40625 15.5 9.40625C13.7537 9.40625 12.079 10.1 10.8442 11.3348C9.60936 12.5696 8.91565 14.2443 8.91565 15.9906C8.91565 17.7369 9.60936 19.4117 10.8442 20.6465C12.079 21.8813 13.7537 22.575 15.5 22.575ZM6.09377 12.2281C6.09377 12.4776 5.99467 12.7168 5.81827 12.8932C5.64187 13.0696 5.40262 13.1688 5.15315 13.1688C4.90368 13.1688 4.66443 13.0696 4.48803 12.8932C4.31163 12.7168 4.21252 12.4776 4.21252 12.2281C4.21252 11.9787 4.31163 11.7394 4.48803 11.563C4.66443 11.3866 4.90368 11.2875 5.15315 11.2875C5.40262 11.2875 5.64187 11.3866 5.81827 11.563C5.99467 11.7394 6.09377 11.9787 6.09377 12.2281Z" fill="#7F8F0B"/>
</g>
<defs>
<clipPath id="clip0_388_4426">
<rect width="30.1" height="30.1" fill="white" transform="translate(0.450012)"/>
</clipPath>
</defs>
</svg>
