<svg width="93" height="94" viewBox="0 0 93 94" fill="none" xmlns="http://www.w3.org/2000/svg">
<path d="M28.5814 71.0192C27.4648 70.4311 26.2948 70.2635 25.1141 69.8727C24.2207 69.577 23.2572 70.0104 22.3869 69.7732C22.0815 69.6899 23.3742 68.7377 23.4981 68.6816C23.8179 68.5369 23.325 68.5724 23.1153 68.548C22.5146 68.4779 21.9259 68.3653 21.3273 68.286C21.1688 68.265 19.8375 68.2309 19.8 68.1311C19.699 67.8622 20.3328 67.6196 20.4693 67.5773C20.8893 67.4471 21.3522 67.5609 21.7698 67.4314C21.9929 67.3622 20.8692 66.9863 20.6834 66.9272C20.4217 66.8439 18.7373 66.233 18.8268 65.8058C18.9481 65.2268 19.7817 65.2257 20.24 65.2736C21.0332 65.3567 18.6565 65.0047 17.9142 64.7133C17.5814 64.5826 16.9762 64.1424 17.1937 63.7295C17.3738 63.3875 17.755 63.3944 18.1139 63.3304C18.4486 63.2708 19.166 63.4267 18.526 63.2076C16.9157 62.6564 15.5426 61.7459 14.0602 60.931C13.3795 60.5568 12.6916 60.201 11.9776 59.8945C11.7639 59.8027 11.1707 59.5925 11.3907 59.5174C11.9974 59.3101 12.7868 59.52 13.3914 59.6195C14.2687 59.7638 15.0726 60.0508 15.918 60.3006C16.4002 60.4432 16.9052 60.436 17.3727 60.6363C17.5388 60.7075 17.9199 61.0404 18.0474 60.818C18.1136 60.7025 18.4318 59.9213 18.4878 59.9245C19.7095 59.9957 20.4041 61.1877 21.2393 61.8421C21.5552 62.0896 21.6148 61.0957 22.0543 61.3272C22.8277 61.7346 23.2186 62.8143 23.5859 63.5388C23.7905 63.9423 24.1956 65.0225 24.6683 65.2268C24.947 65.3473 24.9506 64.696 25.1658 64.7411C25.5121 64.8136 26.125 65.1627 26.3073 65.4707C26.8729 66.4265 25.2192 63.5311 24.595 62.6125C24.499 62.4713 23.6373 61.4812 24.2859 61.8228C24.927 62.1605 24.2023 61.9251 23.8931 61.7368C22.9905 61.1869 22.2309 60.4473 21.6067 59.5959C21.0667 58.8594 21.3536 58.5177 22.1491 58.8241C22.9203 59.1212 23.1038 59.4275 22.5613 58.4143C21.7878 56.9695 20.8353 55.6078 20.1984 54.0956C20.0871 53.8313 19.5426 53.0704 20.1535 53.3921C20.8259 53.7463 21.337 54.1876 21.8958 54.6875C22.3976 55.1364 21.9299 52.9747 21.9082 52.8284C21.6723 51.2403 21.1795 49.7278 20.7057 48.1993C20.6426 47.9958 20.6011 47.3688 20.5574 47.5774C20.4959 47.8709 20.9697 48.6259 20.7181 48.4627C20.3408 48.2179 19.9996 47.269 19.7739 46.8852C19.6334 46.6465 19.4605 46.3723 19.447 46.0862C19.4237 45.5896 19.3808 45.5074 19.9078 45.785C20.1187 45.8961 20.3296 46.0072 20.5405 46.1182C20.9296 46.3232 20.2742 45.2784 20.1004 44.8743C19.7082 43.9623 19.1246 43.1627 18.8475 42.2053C18.7085 41.725 18.6896 41.3284 18.8871 40.8968C19.0226 40.6009 18.9361 39.7296 18.8091 39.4961" stroke="#FDFFF0" stroke-width="0.945869" stroke-linecap="round"/>
<path d="M18.8093 39.4962C19.2576 37.9794 18.4751 35.7878 18.0003 34.3493C17.6474 33.28 17.1469 32.1136 16.4616 31.2049C16.4597 31.2025 16.2453 30.955 16.3757 31.0237C16.9963 31.3506 17.5153 32.4436 17.8707 32.9894C19.4251 35.3767 21.0898 37.9376 22.2184 40.5667C22.4949 41.2109 22.7818 41.9754 22.9062 42.6738C22.9909 43.1491 22.9469 42.4764 22.9798 42.3046C23.0416 41.9822 23.119 41.6388 23.2721 41.3483C23.5317 40.8553 23.709 40.0063 23.8679 40.8766C24.2038 42.7159 24.5757 44.5205 24.7738 46.3842C24.7911 46.5464 25.1803 49.024 25.2614 48.9145C25.5095 48.5796 25.7613 48.0793 25.8884 47.6812C26.0462 47.1864 26.106 46.2496 26.2906 47.319C26.6782 49.5646 26.9474 51.804 27.1283 54.0748C27.138 54.197 27.3183 56.1231 27.4769 55.8219C27.5763 55.6333 27.6453 55.518 27.812 55.3866C28.2607 55.0328 28.1022 56.0801 28.113 56.4213C28.1752 58.3901 27.8377 60.3697 28.0688 62.3273C28.0934 62.5355 28.4965 64.6652 28.7193 64.5054C28.9765 64.3208 29.1861 63.368 29.197 63.6844C29.2171 64.2709 29.3055 64.9142 29.452 65.4804C29.5676 65.9276 29.8113 66.5131 29.6826 65.6019C29.5617 64.7466 29.4657 63.8306 29.1903 63.0087C28.9504 62.2926 28.4943 61.6561 28.1782 60.9725C28.1009 60.8053 27.436 59.0821 27.6197 59.1073C27.7687 59.1277 28.7061 59.881 28.7341 59.8453C28.9483 59.5719 28.881 58.8254 28.8995 58.5275C28.9547 57.6365 29.0278 56.7472 29.0755 55.8557C29.0975 55.4464 28.8482 54.1516 29.4687 54.7939C29.6354 54.9665 30.3842 56.151 30.4034 55.6865C30.5292 52.6457 30.7082 49.6112 30.7726 46.5678C30.7878 45.849 30.812 45.1226 30.9616 44.4165C31.052 43.9896 31.1831 44.5536 31.2484 44.7036C31.382 45.0099 32.2432 46.7534 32.2747 46.6414C32.48 45.9102 32.4885 45.0804 32.5627 44.3308C32.7083 42.8602 32.8716 41.3843 32.9581 39.9089C33.0222 38.8161 32.6569 37.3158 33.136 36.3015C33.7462 35.01 33.933 33.4214 34.2426 32.0352C34.5224 30.7827 34.3422 31.4914 34.8097 32.0771C35.1937 32.5583 36.5137 28.691 36.5971 28.4111C37.4011 25.7153 37.6475 22.999 37.6972 20.2136C37.7136 19.2901 37.7083 18.4567 37.5084 17.5461C37.4038 17.0692 37.0402 16.075 37.5054 17.2651C38.8834 20.79 39.4123 25.3716 38.7228 29.1077C38.6998 29.2324 38.3851 30.6218 38.4804 30.672C38.7579 30.8181 39.6798 29.7721 39.9577 29.66C40.2749 29.5319 39.1462 31.602 39.0425 31.7989C38.5901 32.6579 37.7619 33.7262 37.5464 34.6968C37.4812 34.9902 39.0757 34.3186 39.0114 34.8265C38.817 36.3605 38.2018 37.9109 37.853 39.4205C37.8286 39.5265 37.6444 40.6665 37.9959 40.2964C38.4672 39.8003 38.988 39.3288 39.5928 38.9999C39.6228 38.9836 39.3703 39.9687 39.3462 40.056C39.0457 41.1442 38.7919 42.2426 38.47 43.3257C38.1251 44.4861 37.699 45.6169 37.4281 46.7952C37.3121 47.2995 37.7005 46.8762 37.9248 46.7699C38.0515 46.7099 39.0727 46.3622 39.0115 46.5567C38.6557 47.687 38.0026 48.7446 37.4545 49.7852C37.114 50.4316 36.7735 51.0781 36.433 51.7246C36.3082 51.9615 36.0071 52.3404 35.9895 52.624C35.9745 52.8655 36.723 52.8125 36.9058 52.8347C37.5904 52.9178 37.0026 53.7362 36.8322 54.1933C36.3182 55.5717 35.5696 56.8616 35.0549 58.2272C34.9751 58.439 35.7557 58.1202 35.9697 58.0821C36.1328 58.0531 35.9023 58.4108 35.8252 58.5573C35.4275 59.3123 35.036 60.0707 34.6087 60.8095C34.2782 61.3809 33.2964 63.1002 33.6041 62.5161" stroke="#FDFFF0" stroke-width="0.945869" stroke-linecap="round"/>
<path d="M33.3798 62.9419C34.0204 61.7257 35.1102 60.2909 35.3986 58.937C35.5276 58.3313 35.1235 57.7979 35.18 57.2584C35.2214 56.8629 35.4025 56.66 35.645 56.3325C35.8793 56.0161 36.7561 56.6987 37.0065 56.8307C37.4608 57.0699 38.0938 52.2278 38.1548 51.7252C38.168 51.6164 38.1243 50.7895 38.3037 51.1843C38.4516 51.5095 38.5801 51.8419 38.7616 52.1506C38.8224 52.2539 38.9193 52.5207 39.0335 52.5808C39.2114 52.6745 40.2926 50.0677 40.3354 49.9657C40.9302 48.5469 41.4377 47.0658 41.7915 45.5663C41.8369 45.3743 41.8821 44.6795 41.8849 44.6864C42.0163 45.012 43.2951 47.9031 43.3178 47.8884C43.7893 47.5838 44.1918 46.1887 44.3855 45.7467C45.1979 43.8928 45.7484 41.9942 46.1508 40.0146C46.2929 39.3157 46.3962 38.5932 46.5959 37.9075C46.6926 37.5756 46.9614 38.2801 47.034 38.3951C47.1528 38.5832 47.2049 39.1329 47.3625 38.976C48.5329 37.8109 49.4941 36.2536 50.5087 34.9531C51.1232 34.1654 51.808 33.3754 52.2768 32.4854C52.4063 32.2395 52.3708 32.7833 52.3846 32.8972C52.4331 33.2969 52.6406 32.5469 52.6873 32.4373C53.0734 31.5312 53.416 30.5088 53.368 29.5102C53.3401 28.9297 53.0654 28.4066 53.5795 29.123C53.7918 29.4189 54.1737 29.7362 54.0915 30.0725" stroke="#FDFFF0" stroke-width="0.945869" stroke-linecap="round"/>
<path d="M53.8787 29.9604C54.3352 29.7122 54.7716 28.5212 54.9568 28.1716C55.9665 26.2662 56.9667 24.3558 57.9716 22.448C59.0325 20.4336 60.4178 18.3847 61.2118 16.2388C61.2641 16.0975 61.2612 15.843 61.2311 16.1735C61.0903 17.7204 60.9558 19.2667 60.7684 20.8091C60.3698 24.0896 59.7041 27.3059 58.7615 30.4702C58.5198 31.2817 58.4251 32.2328 57.5364 32.5667C57.3948 32.6199 58.6793 32.5601 58.9651 32.4355C59.7968 32.0727 57.9425 33.968 57.2376 34.5393C56.7127 34.9648 56.1681 35.3822 55.5978 35.7452C55.2914 35.9403 56.2791 35.9087 56.3955 35.9086C56.5807 35.9084 56.7651 35.8499 56.9415 35.8185C57.0382 35.8013 56.2574 37.206 56.1803 37.321C55.4629 38.3914 54.705 39.4251 53.8789 40.4141C53.8021 40.506 53.051 41.1543 53.3206 41.0869C53.4731 41.0487 54.7923 40.8434 54.6652 41.1153C53.9185 42.7129 52.7459 44.087 51.4565 45.2714C51.1038 45.5954 52.2901 45.3655 52.5654 45.4174C53.4946 45.5926 51.3005 47.6611 51.0031 47.9104C50.3864 48.4274 49.7398 48.9334 49.0504 49.3518C48.8876 49.4507 48.7962 49.5845 49.0457 49.5759C49.3909 49.5641 49.8206 49.5118 50.1896 49.4835C50.2879 49.476 51.6686 49.3193 51.4511 49.4833C51.2627 49.6254 50.9711 49.6344 50.7638 49.7558C50.2108 50.0793 49.6627 50.4032 49.088 50.6859C48.6717 50.8907 47.8735 51.8137 47.3954 51.5618" stroke="#FDFFF0" stroke-width="0.945869" stroke-linecap="round"/>
<path d="M47.3954 51.5618C47.8704 51.8119 48.3454 52.0621 48.8204 52.3123C49.1351 52.4781 48.6285 53.1072 48.5063 53.3101C47.8771 54.3553 46.8617 55.2131 45.8253 55.8332C45.7884 55.8553 45.2792 56.1615 45.297 56.0761C45.3286 55.9254 45.4782 55.6605 45.624 55.5988C45.7827 55.5317 46.6041 55.4568 46.6801 55.7018C46.733 55.8727 46.3657 56.3604 46.2926 56.4948C45.932 57.1575 45.4597 57.7455 44.9393 58.2897C44.1792 59.0845 43.1844 59.5738 42.4032 60.3226C42.2597 60.4602 42.9196 60.3174 42.7368 60.6645" stroke="#FDFFF0" stroke-width="0.945869" stroke-linecap="round"/>
<path d="M36.2137 66.3379C36.5984 65.6074 36.9256 64.7602 37.5151 64.1682C38.2151 63.4653 39.0869 62.9567 39.7857 62.2522C39.984 62.0523 41.196 60.5779 41.5079 61.1049C41.6133 61.2829 42.0658 62.076 42.3305 62.0669C42.4879 62.0615 42.7384 61.5541 42.7945 61.4728C43.182 60.9123 43.6021 60.3842 44.0422 59.8641C44.6824 59.1074 45.3142 58.3463 46.0231 57.652C46.2033 57.4754 46.3781 57.3364 46.5812 57.5532C47.1259 58.1346 46.978 57.7519 47.7007 56.9192C48.4703 56.0324 49.4707 54.6327 50.734 54.4155C51.2625 54.3246 51.3182 54.7654 51.6243 55.0053C51.7353 55.0923 51.7324 55.0447 51.9303 54.9549C52.5487 54.6742 53.3202 54.2298 53.8594 53.9166C55.8563 52.7567 57.8016 51.2382 59.9577 50.3835C60.2214 50.279 60.4174 50.3736 60.6478 50.2636C61.1646 50.0169 61.6571 49.6745 62.1433 49.3745C62.8783 48.9211 63.2986 48.3705 64.0926 48.7999C64.8655 49.218 65.0106 49.821 65.6606 49.0065C65.9514 48.6421 66.6761 47.1003 67.2355 47.1923" stroke="#FDFFF0" stroke-width="0.945869" stroke-linecap="round"/>
<path d="M67.0673 47.512C67.7769 46.8939 68.5986 46.397 69.3624 45.8507C70.6788 44.9089 71.8948 43.8535 73.145 42.8277C74.2485 41.9223 75.534 40.577 76.9276 40.0917C76.9731 40.0759 77.4184 39.8995 77.4151 39.9406C77.395 40.1919 76.7752 40.7268 76.6541 40.8691C75.8541 41.8092 75.0353 42.7238 74.1806 43.6149C72.8514 45.0008 71.4862 46.3457 69.9725 47.5316C69.7743 47.6869 69.2317 48.1614 69.4762 48.1011C69.8304 48.0137 70.193 48.1081 70.5519 48.1238C71.4471 48.1629 69.8641 49.1553 69.6445 49.3303C69.2272 49.6629 68.794 49.9636 68.3572 50.2686C68.2492 50.344 67.9425 50.5093 68.0704 50.5405C68.4465 50.6325 68.8441 50.8646 69.1712 51.075C69.922 51.5579 66.028 53.2254 65.5935 53.4506C64.7648 53.8802 67.3463 54.1812 67.1423 54.5685C66.7816 55.2533 65.0391 55.5968 64.3895 55.8226C63.667 56.0737 62.9458 56.3225 62.213 56.5419C61.8279 56.6572 61.3446 56.9098 60.932 56.8944C60.1053 56.8636 63.9027 57.391 63.2194 57.8575C63.0821 57.9513 62.8181 57.935 62.6673 57.9595C61.9997 58.0678 61.3362 58.2013 60.6689 58.3118C59.9566 58.4297 59.2451 58.5071 58.5286 58.5894C58.3407 58.611 57.8911 58.5731 57.9814 58.7393C58.2776 59.2841 59.704 59.5408 60.2482 59.8275C60.455 59.9364 60.5202 60.0078 60.2481 60.1145C59.362 60.4619 58.384 60.6527 57.4585 60.8506C56.082 61.145 54.6972 61.3571 53.3061 61.564C53.1395 61.5888 52.7017 61.6907 52.8473 61.7755C53.7904 62.3247 54.8874 62.6947 55.7769 63.3261C55.9953 63.4812 55.3009 63.5847 55.0407 63.6484C54.2373 63.8448 53.4199 63.9895 52.6087 64.15C52.4309 64.1852 50.631 64.291 50.5519 64.4413C50.5046 64.5311 51.0963 64.7998 51.1549 64.9024C51.4155 65.3582 49.3653 65.6504 49.2255 65.6688C48.4784 65.7668 47.734 65.8094 46.981 65.7857C46.9648 65.7852 46.5272 65.7201 46.6863 65.8722C46.8533 66.0319 47.4606 66.3345 46.9818 66.4583C46.1212 66.6809 45.1915 66.7778 44.3142 66.934C43.9857 66.9926 43.5165 67.077 43.1943 67.024" stroke="#FDFFF0" stroke-width="0.945869" stroke-linecap="round"/>
<path d="M39.0703 68.6583C39.219 68.4752 39.8752 68.4169 40.0956 68.5186C40.4553 68.6845 40.783 69.3456 41.0751 69.4122C41.7678 69.5701 42.8285 68.6948 43.3604 68.3574C43.9245 67.9996 44.4797 67.6324 45.0337 67.2598C45.5464 66.915 45.8577 68.3073 46.1868 68.5696C46.435 68.7675 47.468 67.8616 47.6331 67.7453C48.2995 67.2759 48.9966 66.8836 49.6872 66.4555C50.2779 66.0892 51.218 65.802 51.6512 66.5986C51.8832 67.0254 51.9405 67.5454 52.5205 67.472C54.2109 67.2579 55.8765 66.3127 57.5887 66.2817C57.9809 66.2747 58.1878 67.1189 58.6977 67.2737C60.9768 67.9658 63.2917 65.6404 65.5657 65.6493C66.4094 65.6526 67.1492 66.3994 67.964 66.6028C69.4359 66.9702 70.8753 66.9852 72.3631 67.0844C72.8624 67.1177 73.333 67.1376 73.786 67.3656C74.2922 67.6203 72.8007 67.3119 72.6693 67.3061C71.3064 67.2459 69.9238 67.2637 68.5635 67.3717C67.3469 67.4684 65.9407 67.5416 64.938 68.3324C64.6933 68.5254 63.6832 68.5092 63.3185 68.5821C62.2262 68.8007 63.8519 69.3454 64.228 69.537C64.4565 69.6535 64.6874 69.7558 64.9301 69.8389C65.036 69.8751 65.2935 69.866 65.2413 69.965C65.1194 70.1965 63.8455 70.2 63.6277 70.2179C63.3582 70.24 60.7638 70.5223 60.8633 70.6048C60.9823 70.7035 62.4809 71.365 61.8927 71.5473C60.0102 72.1309 58.0417 72.3495 56.0934 72.5337C55.9181 72.5503 57.307 73.3972 57.3306 73.6839C57.339 73.7867 55.0672 73.6379 54.97 73.634C53.794 73.5865 52.597 73.6081 51.4243 73.5112C51.3449 73.5046 50.4017 73.2885 50.6701 73.552C51.0144 73.8901 51.2741 74.2759 51.4886 74.7083C51.7972 75.3302 48.7674 74.5158 48.4658 74.4531C48.1548 74.3884 46.9461 73.9149 46.6097 74.0192C46.4308 74.0746 47.0797 75.0193 46.8611 75.2771C46.6145 75.5678 45.1059 75.0708 44.7978 75.0212C43.6204 74.8314 42.4597 74.5961 41.2902 74.3671C40.7875 74.2687 41.5042 75.0148 41.6858 75.3081C41.8282 75.5381 41.2167 75.2539 41.191 75.2439C40.4911 74.9711 39.7826 74.7438 39.1164 74.3929C38.6499 74.1472 38.1929 74.0528 38.1611 73.4818" stroke="#FDFFF0" stroke-width="0.945869" stroke-linecap="round"/>
<path d="M37.2365 73.9464C38.5081 74.6162 39.7259 75.3936 40.9884 76.0585C41.3129 76.2294 43.2964 75.9245 43.2328 76.2285C43.0931 76.8951 43.5999 77.2981 44.2137 77.6214C45.0583 78.0663 45.0762 78.2116 45.7305 78.5562C46.6332 79.0317 47.5359 79.5072 48.4385 79.9826C48.7427 80.1429 49.1758 80.2866 49.4313 80.5357C50.2067 81.292 50.2763 82.2887 50.033 83.3226C50.0063 83.4358 49.9014 84.1178 49.7542 84.067C48.961 83.7934 48.1814 83.2461 47.4392 82.8552C45.8939 82.0413 44.3487 81.2274 42.8035 80.4135C41.7591 79.8634 42.6179 80.7841 42.5311 81.4182C42.3767 82.5464 39.7911 79.1633 39.5125 79.6923C39.4294 79.8501 39.3762 80.4568 39.1842 80.5164C38.8656 80.6151 38.1198 80.1965 37.8422 80.0814C37.0927 79.7707 37.0593 79.0722 36.7141 78.4373C36.5612 78.156 36.6501 79.0747 36.6042 79.3916C36.5608 79.6916 36.5621 80.3492 36.3132 80.5752C36.024 80.8378 34.4657 79.1902 34.284 78.9928C33.7442 78.4065 33.5076 77.7959 33.1581 77.1006C32.8176 76.4231 32.6598 75.726 32.1294 75.1388C31.6016 74.5543 31.097 73.9457 30.5616 73.3688C30.3517 73.1428 29.9412 72.8788 29.948 72.5547" stroke="#FDFFF0" stroke-width="0.945869" stroke-linecap="round"/>
<path d="M28.8333 71.8316C28.2212 72.9938 27.7077 74.3064 26.7643 75.2435C26.4621 75.5437 27.2247 75.7429 27.5098 75.8931C27.9592 76.1298 29.3009 73.525 29.6173 72.9243" stroke="#FDFFF0" stroke-width="0.945869" stroke-linecap="round"/>
</svg>
