<svg width="31" height="31" viewBox="0 0 31 31" fill="none" xmlns="http://www.w3.org/2000/svg">
<g clip-path="url(#clip0_388_4415)">
<path fill-rule="evenodd" clip-rule="evenodd" d="M8.73914 2.52535C10.6193 0.904059 13.0173 0.00863965 15.5 0.000854492C20.5603 0.000854492 24.7609 3.76315 25.218 8.61463C28.2128 9.03789 30.5492 11.5455 30.5492 14.623C30.5492 18.0016 27.7312 20.6935 24.3169 20.6935H19.2623C19.0128 20.6935 18.7736 20.5944 18.5972 20.418C18.4208 20.2416 18.3217 20.0024 18.3217 19.7529C18.3217 19.5034 18.4208 19.2642 18.5972 19.0878C18.7736 18.9114 19.0128 18.8123 19.2623 18.8123H24.3188C26.7474 18.8123 28.668 16.9086 28.668 14.623C28.668 12.3355 26.7493 10.4318 24.3169 10.4318H23.3764V9.49124C23.3782 5.3151 19.8793 1.882 15.5 1.882C13.4681 1.89012 11.506 2.62399 9.96753 3.95126C8.5435 5.17777 7.79857 6.65635 7.79857 7.81702V8.65978L6.96146 8.75195C4.33349 9.03977 2.33195 11.1974 2.33195 13.7671C2.33195 16.5267 4.64576 18.8123 7.56342 18.8123H11.7377C11.9871 18.8123 12.2264 18.9114 12.4028 19.0878C12.5792 19.2642 12.6783 19.5034 12.6783 19.7529C12.6783 20.0024 12.5792 20.2416 12.4028 20.418C12.2264 20.5944 11.9871 20.6935 11.7377 20.6935H7.56342C3.66381 20.6935 0.450806 17.6197 0.450806 13.7671C0.450806 10.4506 2.83234 7.70415 5.98514 7.00813C6.25415 5.3847 7.29818 3.76691 8.73914 2.52535Z" fill="#7F8F0B"/>
<path fill-rule="evenodd" clip-rule="evenodd" d="M14.834 7.80013C14.9214 7.71254 15.0252 7.64304 15.1394 7.59563C15.2537 7.54821 15.3762 7.5238 15.4999 7.5238C15.6237 7.5238 15.7462 7.54821 15.8604 7.59563C15.9747 7.64304 16.0785 7.71254 16.1659 7.80013L21.8093 13.4436C21.9859 13.6202 22.0851 13.8597 22.0851 14.1095C22.0851 14.3593 21.9859 14.5988 21.8093 14.7754C21.6327 14.952 21.3932 15.0513 21.1434 15.0513C20.8936 15.0513 20.6541 14.952 20.4775 14.7754L16.4405 10.7366V27.2775C16.4405 27.527 16.3414 27.7662 16.165 27.9426C15.9886 28.119 15.7494 28.2181 15.4999 28.2181C15.2505 28.2181 15.0112 28.119 14.8349 27.9426C14.6585 27.7662 14.5594 27.527 14.5594 27.2775V10.7366L10.5224 14.7754C10.3458 14.952 10.1063 15.0513 9.8565 15.0513C9.60673 15.0513 9.36718 14.952 9.19057 14.7754C9.01396 14.5988 8.91473 14.3593 8.91473 14.1095C8.91473 13.8597 9.01396 13.6202 9.19057 13.4436L14.834 7.80013Z" fill="#7F8F0B"/>
</g>
<defs>
<clipPath id="clip0_388_4415">
<rect width="30.0984" height="30.0984" fill="white" transform="translate(0.450806 0.000854492)"/>
</clipPath>
</defs>
</svg>
