<svg width="31" height="31" viewBox="0 0 31 31" fill="none" xmlns="http://www.w3.org/2000/svg">
<path d="M15.8696 0.315802C15.7621 0.215697 15.6344 0.136275 15.4937 0.0820844C15.3531 0.027894 15.2023 0 15.05 0C14.8977 0 14.7469 0.027894 14.6063 0.0820844C14.4656 0.136275 14.3379 0.215697 14.2304 0.315802L0.338048 13.215C0.23061 13.315 0.145454 13.4337 0.0874501 13.5643C0.0294458 13.6949 -0.000269857 13.8348 1.84651e-06 13.976V29.0251C1.84651e-06 29.3102 0.121973 29.5836 0.339082 29.7852C0.556191 29.9867 0.850655 30.1 1.15769 30.1H11.5769C11.884 30.1 12.1784 29.9867 12.3955 29.7852C12.6126 29.5836 12.7346 29.3102 12.7346 29.0251V20.4256H17.3654V29.0251C17.3654 29.3102 17.4874 29.5836 17.7045 29.7852C17.9216 29.9867 18.216 30.1 18.5231 30.1H28.9423C29.2493 30.1 29.5438 29.9867 29.7609 29.7852C29.978 29.5836 30.1 29.3102 30.1 29.0251V13.976C30.1003 13.8348 30.0706 13.6949 30.0126 13.5643C29.9545 13.4337 29.8694 13.315 29.762 13.215L26.6269 10.3062V3.22672C26.6269 2.94163 26.505 2.66821 26.2878 2.46662C26.0707 2.26504 25.7763 2.15178 25.4692 2.15178H23.1538C22.8468 2.15178 22.5523 2.26504 22.3352 2.46662C22.1181 2.66821 21.9962 2.94163 21.9962 3.22672V6.00649L15.8696 0.315802ZM2.31539 27.9501V14.4211L15.05 2.59681L27.7846 14.4211V27.9501H19.6808V19.3507C19.6808 19.0656 19.5588 18.7922 19.3417 18.5906C19.1246 18.389 18.8301 18.2758 18.5231 18.2758H11.5769C11.2699 18.2758 10.9754 18.389 10.7583 18.5906C10.5412 18.7922 10.4192 19.0656 10.4192 19.3507V27.9501H2.31539Z" fill="#7F8F0B"/>
</svg>
